#!OML:ASF F:\VICON\USERDATA\INSTALL\rory3\rory3.ASF
:FULLY-SPECIFIED
:DEGREES
519
root -2.28606 16.2527 26.5595 208.155 142.46 -174.669
lowerback -19.753 -2.49897 -4.11285
upperback -12.1607 -2.24295 0.195261
thorax -1.95883 -0.736987 2.12637
lowerneck -12.4841 -3.04106 -3.93666
upperneck 40.5978 -3.17619 0.799519
head 16.9257 -1.58242 0.578945
rclavicle -6.09275e-014 -3.67752e-014
rhumerus -52.672 -22.4308 -39.5342
rradius -1.65045
rwrist 24.4012
rhand -19.9205 12.0539
rfingers 7.12502
rthumb 6.41652 -17.8289
lclavicle -6.09275e-014 -3.67752e-014
lhumerus -235.737 -202.257 219.088
lradius 22.9966
lwrist -30.1725
lhand -20.8442 14.9153
lfingers 7.12502
lthumb 5.52474 44.8233
rfemur 119.845 -171.708 -145.455
rtibia 46.9954
rfoot -34.3855 -33.5588
rtoes 34.2271
lfemur -10.1244 -1.9328 -25.1444
ltibia 38.0945
lfoot -19.8268 28.2023
ltoes -4.29484
520
root -2.26181 16.2841 26.6043 208.54 142.621 -174.555
lowerback -19.9554 -2.60042 -4.13591
upperback -12.1457 -2.36307 0.280965
thorax -1.82922 -0.796573 2.20302
lowerneck -12.3432 -2.94181 -3.35539
upperneck 40.5265 -2.99 0.256422
head 16.8134 -1.49314 0.265871
rclavicle 2.15681e-014 2.5842e-014
rhumerus -52.1455 -21.8756 -40.6558
rradius -1.84051
rwrist 23.7705
rhand -19.0758 11.4323
rfingers 7.12502
rthumb 7.23201 -18.4241
lclavicle 2.15681e-014 2.5842e-014
lhumerus -235.687 -202.009 219.623
lradius 22.325
lwrist -29.7937
lhand -20.2187 15.2479
lfingers 7.12502
lthumb 6.12867 45.1393
rfemur 119.889 -171.593 -145.458
rtibia 46.5812
rfoot -33.6605 -33.8441
rtoes 33.6044
lfemur -10.4366 -2.24122 -25.0021
ltibia 37.9668
lfoot -20.0642 28.402
ltoes 0.0125695
521
root -2.23255 16.3186 26.645 208.666 142.592 -174.829
lowerback -20.245 -2.55664 -3.6163
upperback -11.9878 -2.37972 0.315061
thorax -1.5217 -0.841974 1.9331
lowerneck -12.6354 -2.86415 -3.12793
upperneck 40.3716 -2.89335 0.137685
head 16.7901 -1.4381 0.184248
rclavicle -7.61842e-014 -4.8901e-014
rhumerus -51.695 -21.641 -41.8147
rradius -2.02674
rwrist 22.8784
rhand -18.4209 11.0509
rfingers 7.12502
rthumb 7.86415 -18.7828
lclavicle -7.61842e-014 -4.8901e-014
lhumerus -235.292 -201.745 220.243
lradius 21.6251
lwrist -29.1945
lhand -19.2607 16.4502
lfingers 7.12502
lthumb 7.05348 46.3126
rfemur 119.957 -171.218 -144.931
rtibia 46.1758
rfoot -32.6764 -34.123
rtoes 32.309
lfemur -10.7003 -2.29979 -24.4719
ltibia 37.779
lfoot -19.5 28.6095
ltoes 1.22348
522
root -2.19937 16.357 26.6773 208.527 142.469 -175.168
lowerback -20.1356 -2.4387 -2.85469
upperback -11.9458 -2.35976 0.315912
thorax -1.55293 -0.87437 1.51121
lowerneck -12.5776 -2.83227 -3.13299
upperneck 40.2059 -2.84577 0.127905
head 16.6835 -1.42349 0.190054
rclavicle -9.15403e-014 -3.85642e-014
rhumerus -51.5036 -21.2102 -42.8161
rradius -2.20183
rwrist 21.7158
rhand -17.5409 10.681
rfingers 7.12502
rthumb 8.71343 -19.1191
lclavicle -9.15403e-014 -3.85642e-014
lhumerus -234.797 -199.77 222.451
lradius 21.5836
lwrist -26.5581
lhand -18.0318 17.9502
lfingers 7.12502
lthumb 8.23963 47.7695
rfemur 120.243 -170.41 -144.176
rtibia 45.762
rfoot -32.0175 -33.6177
rtoes 31.3422
lfemur -10.7657 -1.85624 -23.8077
ltibia 37.5978
lfoot -17.3801 29.0012
ltoes -0.771005
523
root -2.19208 16.3741 26.7394 209.359 143.246 -174.35
lowerback -20.4241 -2.56769 -3.81526
upperback -12.0188 -2.3542 0.233821
thorax -1.46644 -0.822971 1.95929
lowerneck -12.5096 -2.76334 -3.34517
upperneck 40.344 -2.71102 0.225007
head 16.7469 -1.38619 0.295544
rclavicle 8.00108e-015 -1.19271e-015
rhumerus -51.1982 -20.5562 -43.8162
rradius -2.61315
rwrist 20.5696
rhand -16.6679 10.6214
rfingers 7.12502
rthumb 9.55576 -19.1419
lclavicle 8.00108e-015 -1.19271e-015
lhumerus -234.745 -198.372 223.874
lradius 21.3956
lwrist -24.6592
lhand -16.9974 18.5886
lfingers 7.12502
lthumb 9.23789 48.3662
rfemur 120.318 -171.422 -145.47
rtibia 45.4568
rfoot -32.2019 -34.1112
rtoes 31.3676
lfemur -11.0649 -1.53422 -24.3953
ltibia 37.3357
lfoot -15.4438 29.372
ltoes -0.912919
